<svg width="286" height="36" viewBox="0 0 286 36" fill="none" xmlns="http://www.w3.org/2000/svg">
<path d="M0 4C0 1.79086 1.79086 0 4 0H282C284.209 0 286 1.79086 286 4V32C286 34.2091 284.209 36 282 36H3.99999C1.79085 36 0 34.2091 0 32V4Z" fill="white" fill-opacity="0.12"/>
<path opacity="0.6" d="M18.402 22.052L18.396 23H13.098V14.402H18.396V15.35H14.262V18.206H17.61V19.118H14.262V22.052H18.402ZM19.6077 23V16.922H20.2497C20.4017 16.922 20.4957 16.996 20.5317 17.144L20.6097 17.768C20.8337 17.492 21.0857 17.266 21.3657 17.09C21.6457 16.914 21.9697 16.826 22.3377 16.826C22.7457 16.826 23.0757 16.94 23.3277 17.168C23.5837 17.396 23.7677 17.704 23.8797 18.092C23.9677 17.872 24.0797 17.682 24.2157 17.522C24.3557 17.362 24.5117 17.23 24.6837 17.126C24.8557 17.022 25.0377 16.946 25.2297 16.898C25.4257 16.85 25.6237 16.826 25.8237 16.826C26.1437 16.826 26.4277 16.878 26.6757 16.982C26.9277 17.082 27.1397 17.23 27.3117 17.426C27.4877 17.622 27.6217 17.864 27.7137 18.152C27.8057 18.436 27.8517 18.762 27.8517 19.13V23H26.7777V19.13C26.7777 18.654 26.6737 18.294 26.4657 18.05C26.2577 17.802 25.9577 17.678 25.5657 17.678C25.3897 17.678 25.2217 17.71 25.0617 17.774C24.9057 17.834 24.7677 17.924 24.6477 18.044C24.5277 18.164 24.4317 18.316 24.3597 18.5C24.2917 18.68 24.2577 18.89 24.2577 19.13V23H23.1837V19.13C23.1837 18.642 23.0857 18.278 22.8897 18.038C22.6937 17.798 22.4077 17.678 22.0317 17.678C21.7677 17.678 21.5237 17.75 21.2997 17.894C21.0757 18.034 20.8697 18.226 20.6817 18.47V23H19.6077ZM32.7689 20.264C32.2769 20.28 31.8569 20.32 31.5089 20.384C31.1649 20.444 30.8829 20.524 30.6629 20.624C30.4469 20.724 30.2889 20.842 30.1889 20.978C30.0929 21.114 30.0449 21.266 30.0449 21.434C30.0449 21.594 30.0709 21.732 30.1229 21.848C30.1749 21.964 30.2449 22.06 30.3329 22.136C30.4249 22.208 30.5309 22.262 30.6509 22.298C30.7749 22.33 30.9069 22.346 31.0469 22.346C31.2349 22.346 31.4069 22.328 31.5629 22.292C31.7189 22.252 31.8649 22.196 32.0009 22.124C32.1409 22.052 32.2729 21.966 32.3969 21.866C32.5249 21.766 32.6489 21.652 32.7689 21.524V20.264ZM29.3189 17.78C29.6549 17.456 30.0169 17.214 30.4049 17.054C30.7929 16.894 31.2229 16.814 31.6949 16.814C32.0349 16.814 32.3369 16.87 32.6009 16.982C32.8649 17.094 33.0869 17.25 33.2669 17.45C33.4469 17.65 33.5829 17.892 33.6749 18.176C33.7669 18.46 33.8129 18.772 33.8129 19.112V23H33.3389C33.2349 23 33.1549 22.984 33.0989 22.952C33.0429 22.916 32.9989 22.848 32.9669 22.748L32.8469 22.172C32.6869 22.32 32.5309 22.452 32.3789 22.568C32.2269 22.68 32.0669 22.776 31.8989 22.856C31.7309 22.932 31.5509 22.99 31.3589 23.03C31.1709 23.074 30.9609 23.096 30.7289 23.096C30.4929 23.096 30.2709 23.064 30.0629 23C29.8549 22.932 29.6729 22.832 29.5169 22.7C29.3649 22.568 29.2429 22.402 29.1509 22.202C29.0629 21.998 29.0189 21.758 29.0189 21.482C29.0189 21.242 29.0849 21.012 29.2169 20.792C29.3489 20.568 29.5629 20.37 29.8589 20.198C30.1549 20.026 30.5409 19.886 31.0169 19.778C31.4929 19.666 32.0769 19.602 32.7689 19.586V19.112C32.7689 18.64 32.6669 18.284 32.4629 18.044C32.2589 17.8 31.9609 17.678 31.5689 17.678C31.3049 17.678 31.0829 17.712 30.9029 17.78C30.7269 17.844 30.5729 17.918 30.4409 18.002C30.3129 18.082 30.2009 18.156 30.1049 18.224C30.0129 18.288 29.9209 18.32 29.8289 18.32C29.7569 18.32 29.6949 18.302 29.6429 18.266C29.5909 18.226 29.5469 18.178 29.5109 18.122L29.3189 17.78ZM36.5678 16.922V23H35.4998V16.922H36.5678ZM36.7958 15.014C36.7958 15.118 36.7738 15.216 36.7298 15.308C36.6898 15.396 36.6338 15.476 36.5618 15.548C36.4938 15.616 36.4118 15.67 36.3158 15.71C36.2237 15.75 36.1258 15.77 36.0218 15.77C35.9178 15.77 35.8198 15.75 35.7278 15.71C35.6398 15.67 35.5618 15.616 35.4938 15.548C35.4258 15.476 35.3718 15.396 35.3318 15.308C35.2918 15.216 35.2718 15.118 35.2718 15.014C35.2718 14.91 35.2918 14.812 35.3318 14.72C35.3718 14.624 35.4258 14.542 35.4938 14.474C35.5618 14.402 35.6398 14.346 35.7278 14.306C35.8198 14.266 35.9178 14.246 36.0218 14.246C36.1258 14.246 36.2237 14.266 36.3158 14.306C36.4118 14.346 36.4938 14.402 36.5618 14.474C36.6338 14.542 36.6898 14.624 36.7298 14.72C36.7738 14.812 36.7958 14.91 36.7958 15.014ZM39.4266 14.162V23H38.3586V14.162H39.4266ZM47.5228 20.264C47.0308 20.28 46.6108 20.32 46.2628 20.384C45.9188 20.444 45.6368 20.524 45.4168 20.624C45.2008 20.724 45.0428 20.842 44.9428 20.978C44.8468 21.114 44.7988 21.266 44.7988 21.434C44.7988 21.594 44.8248 21.732 44.8768 21.848C44.9288 21.964 44.9988 22.06 45.0868 22.136C45.1788 22.208 45.2848 22.262 45.4048 22.298C45.5288 22.33 45.6608 22.346 45.8008 22.346C45.9888 22.346 46.1608 22.328 46.3168 22.292C46.4728 22.252 46.6188 22.196 46.7548 22.124C46.8948 22.052 47.0268 21.966 47.1508 21.866C47.2788 21.766 47.4028 21.652 47.5228 21.524V20.264ZM44.0728 17.78C44.4088 17.456 44.7708 17.214 45.1588 17.054C45.5468 16.894 45.9768 16.814 46.4488 16.814C46.7888 16.814 47.0908 16.87 47.3548 16.982C47.6188 17.094 47.8408 17.25 48.0208 17.45C48.2008 17.65 48.3368 17.892 48.4288 18.176C48.5208 18.46 48.5668 18.772 48.5668 19.112V23H48.0928C47.9888 23 47.9088 22.984 47.8528 22.952C47.7968 22.916 47.7528 22.848 47.7208 22.748L47.6008 22.172C47.4408 22.32 47.2848 22.452 47.1328 22.568C46.9808 22.68 46.8208 22.776 46.6528 22.856C46.4848 22.932 46.3048 22.99 46.1128 23.03C45.9248 23.074 45.7148 23.096 45.4828 23.096C45.2468 23.096 45.0248 23.064 44.8168 23C44.6088 22.932 44.4268 22.832 44.2708 22.7C44.1188 22.568 43.9968 22.402 43.9048 22.202C43.8168 21.998 43.7728 21.758 43.7728 21.482C43.7728 21.242 43.8388 21.012 43.9708 20.792C44.1028 20.568 44.3168 20.37 44.6128 20.198C44.9088 20.026 45.2948 19.886 45.7708 19.778C46.2468 19.666 46.8308 19.602 47.5228 19.586V19.112C47.5228 18.64 47.4208 18.284 47.2168 18.044C47.0128 17.8 46.7148 17.678 46.3228 17.678C46.0588 17.678 45.8368 17.712 45.6568 17.78C45.4808 17.844 45.3268 17.918 45.1948 18.002C45.0668 18.082 44.9548 18.156 44.8588 18.224C44.7668 18.288 44.6748 18.32 44.5828 18.32C44.5108 18.32 44.4488 18.302 44.3968 18.266C44.3448 18.226 44.3008 18.178 44.2648 18.122L44.0728 17.78ZM54.1537 18.368C53.9537 18.1 53.7377 17.914 53.5057 17.81C53.2737 17.702 53.0137 17.648 52.7257 17.648C52.1617 17.648 51.7277 17.85 51.4237 18.254C51.1197 18.658 50.9677 19.234 50.9677 19.982C50.9677 20.378 51.0017 20.718 51.0697 21.002C51.1377 21.282 51.2377 21.514 51.3697 21.698C51.5017 21.878 51.6637 22.01 51.8557 22.094C52.0477 22.178 52.2657 22.22 52.5097 22.22C52.8617 22.22 53.1677 22.14 53.4277 21.98C53.6917 21.82 53.9337 21.594 54.1537 21.302V18.368ZM55.2217 14.162V23H54.5857C54.4337 23 54.3377 22.926 54.2977 22.778L54.2017 22.04C53.9417 22.352 53.6457 22.604 53.3137 22.796C52.9817 22.988 52.5977 23.084 52.1617 23.084C51.8137 23.084 51.4977 23.018 51.2137 22.886C50.9297 22.75 50.6877 22.552 50.4877 22.292C50.2877 22.032 50.1337 21.708 50.0257 21.32C49.9177 20.932 49.8637 20.486 49.8637 19.982C49.8637 19.534 49.9237 19.118 50.0437 18.734C50.1637 18.346 50.3357 18.01 50.5597 17.726C50.7837 17.442 51.0577 17.22 51.3817 17.06C51.7097 16.896 52.0777 16.814 52.4857 16.814C52.8577 16.814 53.1757 16.878 53.4397 17.006C53.7077 17.13 53.9457 17.304 54.1537 17.528V14.162H55.2217ZM60.8685 18.368C60.6685 18.1 60.4525 17.914 60.2205 17.81C59.9885 17.702 59.7285 17.648 59.4405 17.648C58.8765 17.648 58.4425 17.85 58.1385 18.254C57.8345 18.658 57.6825 19.234 57.6825 19.982C57.6825 20.378 57.7165 20.718 57.7845 21.002C57.8525 21.282 57.9525 21.514 58.0845 21.698C58.2165 21.878 58.3785 22.01 58.5705 22.094C58.7625 22.178 58.9805 22.22 59.2245 22.22C59.5765 22.22 59.8825 22.14 60.1425 21.98C60.4065 21.82 60.6485 21.594 60.8685 21.302V18.368ZM61.9365 14.162V23H61.3005C61.1485 23 61.0525 22.926 61.0125 22.778L60.9165 22.04C60.6565 22.352 60.3605 22.604 60.0285 22.796C59.6965 22.988 59.3125 23.084 58.8765 23.084C58.5285 23.084 58.2125 23.018 57.9285 22.886C57.6445 22.75 57.4025 22.552 57.2025 22.292C57.0025 22.032 56.8485 21.708 56.7405 21.32C56.6325 20.932 56.5785 20.486 56.5785 19.982C56.5785 19.534 56.6385 19.118 56.7585 18.734C56.8785 18.346 57.0505 18.01 57.2745 17.726C57.4985 17.442 57.7725 17.22 58.0965 17.06C58.4245 16.896 58.7925 16.814 59.2005 16.814C59.5725 16.814 59.8905 16.878 60.1545 17.006C60.4225 17.13 60.6605 17.304 60.8685 17.528V14.162H61.9365ZM64.6373 18.14C64.8293 17.724 65.0653 17.4 65.3453 17.168C65.6253 16.932 65.9673 16.814 66.3713 16.814C66.4993 16.814 66.6213 16.828 66.7373 16.856C66.8573 16.884 66.9633 16.928 67.0553 16.988L66.9773 17.786C66.9533 17.886 66.8933 17.936 66.7973 17.936C66.7413 17.936 66.6593 17.924 66.5513 17.9C66.4433 17.876 66.3213 17.864 66.1853 17.864C65.9933 17.864 65.8213 17.892 65.6693 17.948C65.5213 18.004 65.3873 18.088 65.2673 18.2C65.1513 18.308 65.0453 18.444 64.9493 18.608C64.8573 18.768 64.7733 18.952 64.6973 19.16V23H63.6233V16.922H64.2353C64.3513 16.922 64.4313 16.944 64.4753 16.988C64.5193 17.032 64.5493 17.108 64.5653 17.216L64.6373 18.14ZM71.8163 19.298C71.8163 19.05 71.7803 18.824 71.7083 18.62C71.6403 18.412 71.5383 18.234 71.4023 18.086C71.2703 17.934 71.1083 17.818 70.9163 17.738C70.7243 17.654 70.5063 17.612 70.2623 17.612C69.7503 17.612 69.3443 17.762 69.0443 18.062C68.7483 18.358 68.5643 18.77 68.4923 19.298H71.8163ZM72.6803 22.148C72.5483 22.308 72.3903 22.448 72.2063 22.568C72.0223 22.684 71.8243 22.78 71.6123 22.856C71.4043 22.932 71.1883 22.988 70.9643 23.024C70.7403 23.064 70.5183 23.084 70.2983 23.084C69.8783 23.084 69.4903 23.014 69.1343 22.874C68.7823 22.73 68.4763 22.522 68.2163 22.25C67.9603 21.974 67.7603 21.634 67.6163 21.23C67.4723 20.826 67.4003 20.362 67.4003 19.838C67.4003 19.414 67.4643 19.018 67.5923 18.65C67.7243 18.282 67.9123 17.964 68.1563 17.696C68.4003 17.424 68.6983 17.212 69.0503 17.06C69.4023 16.904 69.7983 16.826 70.2383 16.826C70.6023 16.826 70.9383 16.888 71.2463 17.012C71.5583 17.132 71.8263 17.308 72.0503 17.54C72.2783 17.768 72.4563 18.052 72.5843 18.392C72.7123 18.728 72.7763 19.112 72.7763 19.544C72.7763 19.712 72.7583 19.824 72.7223 19.88C72.6863 19.936 72.6183 19.964 72.5183 19.964H68.4563C68.4683 20.348 68.5203 20.682 68.6123 20.966C68.7083 21.25 68.8403 21.488 69.0083 21.68C69.1763 21.868 69.3763 22.01 69.6083 22.106C69.8403 22.198 70.1003 22.244 70.3883 22.244C70.6563 22.244 70.8863 22.214 71.0783 22.154C71.2743 22.09 71.4423 22.022 71.5823 21.95C71.7223 21.878 71.8383 21.812 71.9303 21.752C72.0263 21.688 72.1083 21.656 72.1763 21.656C72.2643 21.656 72.3323 21.69 72.3803 21.758L72.6803 22.148ZM77.6282 17.924C77.5802 18.012 77.5062 18.056 77.4062 18.056C77.3462 18.056 77.2782 18.034 77.2022 17.99C77.1262 17.946 77.0322 17.898 76.9202 17.846C76.8122 17.79 76.6822 17.74 76.5302 17.696C76.3782 17.648 76.1982 17.624 75.9902 17.624C75.8102 17.624 75.6482 17.648 75.5042 17.696C75.3602 17.74 75.2362 17.802 75.1322 17.882C75.0322 17.962 74.9542 18.056 74.8982 18.164C74.8462 18.268 74.8202 18.382 74.8202 18.506C74.8202 18.662 74.8642 18.792 74.9522 18.896C75.0442 19 75.1642 19.09 75.3122 19.166C75.4602 19.242 75.6282 19.31 75.8162 19.37C76.0042 19.426 76.1962 19.488 76.3922 19.556C76.5922 19.62 76.7862 19.692 76.9742 19.772C77.1622 19.852 77.3302 19.952 77.4782 20.072C77.6262 20.192 77.7442 20.34 77.8322 20.516C77.9242 20.688 77.9702 20.896 77.9702 21.14C77.9702 21.42 77.9202 21.68 77.8202 21.92C77.7202 22.156 77.5722 22.362 77.3762 22.538C77.1802 22.71 76.9402 22.846 76.6562 22.946C76.3722 23.046 76.0442 23.096 75.6722 23.096C75.2482 23.096 74.8642 23.028 74.5202 22.892C74.1762 22.752 73.8842 22.574 73.6442 22.358L73.8962 21.95C73.9282 21.898 73.9662 21.858 74.0102 21.83C74.0542 21.802 74.1102 21.788 74.1782 21.788C74.2502 21.788 74.3262 21.816 74.4062 21.872C74.4862 21.928 74.5822 21.99 74.6942 22.058C74.8102 22.126 74.9502 22.188 75.1142 22.244C75.2782 22.3 75.4822 22.328 75.7262 22.328C75.9342 22.328 76.1162 22.302 76.2722 22.25C76.4282 22.194 76.5582 22.12 76.6622 22.028C76.7662 21.936 76.8422 21.83 76.8902 21.71C76.9422 21.59 76.9682 21.462 76.9682 21.326C76.9682 21.158 76.9222 21.02 76.8302 20.912C76.7422 20.8 76.6242 20.706 76.4762 20.63C76.3282 20.55 76.1582 20.482 75.9662 20.426C75.7782 20.366 75.5842 20.304 75.3842 20.24C75.1882 20.176 74.9942 20.104 74.8022 20.024C74.6142 19.94 74.4462 19.836 74.2982 19.712C74.1502 19.588 74.0302 19.436 73.9382 19.256C73.8502 19.072 73.8062 18.85 73.8062 18.59C73.8062 18.358 73.8542 18.136 73.9502 17.924C74.0462 17.708 74.1862 17.52 74.3702 17.36C74.5542 17.196 74.7802 17.066 75.0482 16.97C75.3162 16.874 75.6222 16.826 75.9662 16.826C76.3662 16.826 76.7242 16.89 77.0402 17.018C77.3602 17.142 77.6362 17.314 77.8682 17.534L77.6282 17.924ZM82.8196 17.924C82.7716 18.012 82.6976 18.056 82.5976 18.056C82.5376 18.056 82.4696 18.034 82.3936 17.99C82.3176 17.946 82.2236 17.898 82.1116 17.846C82.0036 17.79 81.8736 17.74 81.7216 17.696C81.5696 17.648 81.3896 17.624 81.1816 17.624C81.0016 17.624 80.8396 17.648 80.6956 17.696C80.5516 17.74 80.4276 17.802 80.3236 17.882C80.2236 17.962 80.1456 18.056 80.0896 18.164C80.0376 18.268 80.0116 18.382 80.0116 18.506C80.0116 18.662 80.0556 18.792 80.1436 18.896C80.2356 19 80.3556 19.09 80.5036 19.166C80.6516 19.242 80.8196 19.31 81.0076 19.37C81.1956 19.426 81.3876 19.488 81.5836 19.556C81.7836 19.62 81.9776 19.692 82.1656 19.772C82.3536 19.852 82.5216 19.952 82.6696 20.072C82.8176 20.192 82.9356 20.34 83.0236 20.516C83.1156 20.688 83.1616 20.896 83.1616 21.14C83.1616 21.42 83.1116 21.68 83.0116 21.92C82.9116 22.156 82.7636 22.362 82.5676 22.538C82.3716 22.71 82.1316 22.846 81.8476 22.946C81.5636 23.046 81.2356 23.096 80.8636 23.096C80.4396 23.096 80.0556 23.028 79.7116 22.892C79.3676 22.752 79.0756 22.574 78.8356 22.358L79.0876 21.95C79.1196 21.898 79.1576 21.858 79.2016 21.83C79.2456 21.802 79.3016 21.788 79.3696 21.788C79.4416 21.788 79.5176 21.816 79.5976 21.872C79.6776 21.928 79.7736 21.99 79.8856 22.058C80.0016 22.126 80.1416 22.188 80.3056 22.244C80.4696 22.3 80.6736 22.328 80.9176 22.328C81.1256 22.328 81.3076 22.302 81.4636 22.25C81.6196 22.194 81.7496 22.12 81.8536 22.028C81.9576 21.936 82.0336 21.83 82.0816 21.71C82.1336 21.59 82.1596 21.462 82.1596 21.326C82.1596 21.158 82.1136 21.02 82.0216 20.912C81.9336 20.8 81.8156 20.706 81.6676 20.63C81.5196 20.55 81.3496 20.482 81.1576 20.426C80.9696 20.366 80.7756 20.304 80.5756 20.24C80.3796 20.176 80.1856 20.104 79.9936 20.024C79.8056 19.94 79.6376 19.836 79.4896 19.712C79.3416 19.588 79.2216 19.436 79.1296 19.256C79.0416 19.072 78.9976 18.85 78.9976 18.59C78.9976 18.358 79.0456 18.136 79.1416 17.924C79.2376 17.708 79.3776 17.52 79.5616 17.36C79.7456 17.196 79.9716 17.066 80.2396 16.97C80.5076 16.874 80.8136 16.826 81.1576 16.826C81.5576 16.826 81.9156 16.89 82.2316 17.018C82.5516 17.142 82.8276 17.314 83.0596 17.534L82.8196 17.924Z" fill="white"/>
<path fill-rule="evenodd" clip-rule="evenodd" d="M267.862 14.5292C268.122 14.2689 268.544 14.2689 268.805 14.5292L271.805 17.5292C272.065 17.7896 272.065 18.2117 271.805 18.4721L268.805 21.4721C268.544 21.7324 268.122 21.7324 267.862 21.4721C267.602 21.2117 267.602 20.7896 267.862 20.5292L269.724 18.6673H260.667C260.298 18.6673 260 18.3688 260 18.0007C260 17.6325 260.298 17.334 260.667 17.334H269.724L267.862 15.4721C267.602 15.2117 267.602 14.7896 267.862 14.5292Z" fill="white"/>
<path d="M4 1H282V-1H4V1ZM285 4V32H287V4H285ZM282 35H3.99999V37H282V35ZM1 32V4H-1V32H1ZM3.99999 35C2.34314 35 1 33.6569 1 32H-1C-1 34.7614 1.23857 37 3.99999 37V35ZM285 32C285 33.6569 283.657 35 282 35V37C284.761 37 287 34.7614 287 32H285ZM282 1C283.657 1 285 2.34314 285 4H287C287 1.23858 284.761 -1 282 -1V1ZM4 -1C1.23858 -1 -1 1.23858 -1 4H1C1 2.34315 2.34315 1 4 1V-1Z" fill="white" fill-opacity="0.2"/>
</svg>
