<svg width="48" height="12" viewBox="0 0 48 12" fill="none" xmlns="http://www.w3.org/2000/svg">
<path d="M3.242 6.17C3.62933 6.17 3.97 6.11867 4.264 6.016C4.56267 5.91333 4.81233 5.771 5.013 5.589C5.21833 5.40233 5.37233 5.18067 5.475 4.924C5.57767 4.66733 5.629 4.385 5.629 4.077C5.629 3.43767 5.43067 2.93833 5.034 2.579C4.642 2.21967 4.04467 2.04 3.242 2.04H1.632V6.17H3.242ZM3.242 0.968999C3.87667 0.968999 4.42733 1.04367 4.894 1.193C5.36533 1.33767 5.755 1.54533 6.063 1.816C6.371 2.08667 6.59967 2.41333 6.749 2.796C6.903 3.17867 6.98 3.60567 6.98 4.077C6.98 4.54367 6.89833 4.97067 6.735 5.358C6.57167 5.74533 6.33133 6.079 6.014 6.359C5.70133 6.639 5.31167 6.85833 4.845 7.017C4.383 7.171 3.84867 7.248 3.242 7.248H1.632V11H0.281V0.968999H3.242ZM11.0151 3.797C11.5331 3.797 11.9997 3.88333 12.4151 4.056C12.8304 4.22867 13.1851 4.47367 13.4791 4.791C13.7731 5.10833 13.9971 5.49333 14.1511 5.946C14.3097 6.394 14.3891 6.89567 14.3891 7.451C14.3891 8.011 14.3097 8.515 14.1511 8.963C13.9971 9.411 13.7731 9.79367 13.4791 10.111C13.1851 10.4283 12.8304 10.6733 12.4151 10.846C11.9997 11.014 11.5331 11.098 11.0151 11.098C10.4924 11.098 10.0211 11.014 9.60106 10.846C9.18573 10.6733 8.83106 10.4283 8.53706 10.111C8.24306 9.79367 8.01673 9.411 7.85806 8.963C7.70406 8.515 7.62706 8.011 7.62706 7.451C7.62706 6.89567 7.70406 6.394 7.85806 5.946C8.01673 5.49333 8.24306 5.10833 8.53706 4.791C8.83106 4.47367 9.18573 4.22867 9.60106 4.056C10.0211 3.88333 10.4924 3.797 11.0151 3.797ZM11.0151 10.125C11.7151 10.125 12.2377 9.89167 12.5831 9.425C12.9284 8.95367 13.1011 8.298 13.1011 7.458C13.1011 6.61333 12.9284 5.95533 12.5831 5.484C12.2377 5.01267 11.7151 4.777 11.0151 4.777C10.6604 4.777 10.3501 4.83767 10.0841 4.959C9.82273 5.08033 9.6034 5.25533 9.42606 5.484C9.2534 5.71267 9.12273 5.995 9.03406 6.331C8.95006 6.66233 8.90806 7.038 8.90806 7.458C8.90806 8.298 9.08073 8.95367 9.42606 9.425C9.77606 9.89167 10.3057 10.125 11.0151 10.125ZM20.5894 5.596C20.3561 5.28333 20.1041 5.06633 19.8334 4.945C19.5628 4.819 19.2594 4.756 18.9234 4.756C18.2654 4.756 17.7591 4.99167 17.4044 5.463C17.0498 5.93433 16.8724 6.60633 16.8724 7.479C16.8724 7.941 16.9121 8.33767 16.9914 8.669C17.0708 8.99567 17.1874 9.26633 17.3414 9.481C17.4954 9.691 17.6844 9.845 17.9084 9.943C18.1324 10.041 18.3868 10.09 18.6714 10.09C19.0821 10.09 19.4391 9.99667 19.7424 9.81C20.0504 9.62333 20.3328 9.35967 20.5894 9.019V5.596ZM21.8354 0.689V11H21.0934C20.9161 11 20.8041 10.9137 20.7574 10.741L20.6454 9.88C20.3421 10.244 19.9968 10.538 19.6094 10.762C19.2221 10.986 18.7741 11.098 18.2654 11.098C17.8594 11.098 17.4908 11.021 17.1594 10.867C16.8281 10.7083 16.5458 10.4773 16.3124 10.174C16.0791 9.87067 15.8994 9.49267 15.7734 9.04C15.6474 8.58733 15.5844 8.067 15.5844 7.479C15.5844 6.95633 15.6544 6.471 15.7944 6.023C15.9344 5.57033 16.1351 5.17833 16.3964 4.847C16.6578 4.51567 16.9774 4.25667 17.3554 4.07C17.7381 3.87867 18.1674 3.783 18.6434 3.783C19.0774 3.783 19.4484 3.85767 19.7564 4.007C20.0691 4.15167 20.3468 4.35467 20.5894 4.616V0.689H21.8354ZM28.7384 5.169C28.7011 5.22033 28.6637 5.26 28.6264 5.288C28.5891 5.316 28.5377 5.33 28.4724 5.33C28.4024 5.33 28.3254 5.302 28.2414 5.246C28.1574 5.18533 28.0524 5.12 27.9264 5.05C27.8051 4.98 27.6534 4.917 27.4714 4.861C27.2941 4.80033 27.0747 4.77 26.8134 4.77C26.4634 4.77 26.1554 4.833 25.8894 4.959C25.6234 5.08033 25.3994 5.25767 25.2174 5.491C25.0401 5.72433 24.9047 6.00667 24.8114 6.338C24.7227 6.66933 24.6784 7.04033 24.6784 7.451C24.6784 7.88033 24.7274 8.263 24.8254 8.599C24.9234 8.93033 25.0611 9.21033 25.2384 9.439C25.4204 9.663 25.6374 9.83567 25.8894 9.957C26.1461 10.0737 26.4331 10.132 26.7504 10.132C27.0537 10.132 27.3034 10.097 27.4994 10.027C27.6954 9.95233 27.8564 9.87067 27.9824 9.782C28.1131 9.69333 28.2204 9.614 28.3044 9.544C28.3931 9.46933 28.4794 9.432 28.5634 9.432C28.6661 9.432 28.7454 9.47167 28.8014 9.551L29.1514 10.006C28.9974 10.1973 28.8224 10.3607 28.6264 10.496C28.4304 10.6313 28.2181 10.7457 27.9894 10.839C27.7654 10.9277 27.5297 10.993 27.2824 11.035C27.0351 11.077 26.7831 11.098 26.5264 11.098C26.0831 11.098 25.6701 11.0163 25.2874 10.853C24.9094 10.6897 24.5804 10.454 24.3004 10.146C24.0204 9.83333 23.8011 9.45067 23.6424 8.998C23.4837 8.54533 23.4044 8.02967 23.4044 7.451C23.4044 6.92367 23.4767 6.436 23.6214 5.988C23.7707 5.54 23.9854 5.155 24.2654 4.833C24.5501 4.50633 24.8977 4.252 25.3084 4.07C25.7237 3.888 26.1997 3.797 26.7364 3.797C27.2357 3.797 27.6744 3.87867 28.0524 4.042C28.4351 4.20067 28.7734 4.427 29.0674 4.721L28.7384 5.169ZM34.332 7.808C33.758 7.82667 33.268 7.87333 32.862 7.948C32.4606 8.018 32.1316 8.11133 31.875 8.228C31.623 8.34467 31.4386 8.48233 31.322 8.641C31.21 8.79967 31.154 8.977 31.154 9.173C31.154 9.35967 31.1843 9.52067 31.245 9.656C31.3056 9.79133 31.3873 9.90333 31.49 9.992C31.5973 10.076 31.721 10.139 31.861 10.181C32.0056 10.2183 32.1596 10.237 32.323 10.237C32.5423 10.237 32.743 10.216 32.925 10.174C33.107 10.1273 33.2773 10.062 33.436 9.978C33.5993 9.894 33.7533 9.79367 33.898 9.677C34.0473 9.56033 34.192 9.42733 34.332 9.278V7.808ZM30.307 4.91C30.699 4.532 31.1213 4.24967 31.574 4.063C32.0266 3.87633 32.5283 3.783 33.079 3.783C33.4756 3.783 33.828 3.84833 34.136 3.979C34.444 4.10967 34.703 4.29167 34.913 4.525C35.123 4.75833 35.2816 5.04067 35.389 5.372C35.4963 5.70333 35.55 6.06733 35.55 6.464V11H34.997C34.8756 11 34.7823 10.9813 34.717 10.944C34.6516 10.902 34.6003 10.8227 34.563 10.706L34.423 10.034C34.2363 10.2067 34.0543 10.3607 33.877 10.496C33.6996 10.6267 33.513 10.7387 33.317 10.832C33.121 10.9207 32.911 10.9883 32.687 11.035C32.4676 11.0863 32.2226 11.112 31.952 11.112C31.6766 11.112 31.4176 11.0747 31.175 11C30.9323 10.9207 30.72 10.804 30.538 10.65C30.3606 10.496 30.2183 10.3023 30.111 10.069C30.0083 9.831 29.957 9.551 29.957 9.229C29.957 8.949 30.034 8.68067 30.188 8.424C30.342 8.16267 30.5916 7.93167 30.937 7.731C31.2823 7.53033 31.7326 7.367 32.288 7.241C32.8433 7.11033 33.5246 7.03567 34.332 7.017V6.464C34.332 5.91333 34.213 5.498 33.975 5.218C33.737 4.93333 33.3893 4.791 32.932 4.791C32.624 4.791 32.365 4.83067 32.155 4.91C31.9496 4.98467 31.77 5.071 31.616 5.169C31.4666 5.26233 31.336 5.34867 31.224 5.428C31.1166 5.50267 31.0093 5.54 30.902 5.54C30.818 5.54 30.7456 5.519 30.685 5.477C30.6243 5.43033 30.573 5.37433 30.531 5.309L30.307 4.91ZM41.5779 5.078C41.5219 5.18067 41.4356 5.232 41.3189 5.232C41.2489 5.232 41.1696 5.20633 41.0809 5.155C40.9923 5.10367 40.8826 5.04767 40.7519 4.987C40.6259 4.92167 40.4743 4.86333 40.2969 4.812C40.1196 4.756 39.9096 4.728 39.6669 4.728C39.4569 4.728 39.2679 4.756 39.0999 4.812C38.9319 4.86333 38.7873 4.93567 38.6659 5.029C38.5493 5.12233 38.4583 5.232 38.3929 5.358C38.3323 5.47933 38.3019 5.61233 38.3019 5.757C38.3019 5.939 38.3533 6.09067 38.4559 6.212C38.5633 6.33333 38.7033 6.43833 38.8759 6.527C39.0486 6.61567 39.2446 6.695 39.4639 6.765C39.6833 6.83033 39.9073 6.90267 40.1359 6.982C40.3693 7.05667 40.5956 7.14067 40.8149 7.234C41.0343 7.32733 41.2303 7.444 41.4029 7.584C41.5756 7.724 41.7133 7.89667 41.8159 8.102C41.9233 8.30267 41.9769 8.54533 41.9769 8.83C41.9769 9.15667 41.9186 9.46 41.8019 9.74C41.6853 10.0153 41.5126 10.2557 41.2839 10.461C41.0553 10.6617 40.7753 10.8203 40.4439 10.937C40.1126 11.0537 39.7299 11.112 39.2959 11.112C38.8013 11.112 38.3533 11.0327 37.9519 10.874C37.5506 10.7107 37.2099 10.503 36.9299 10.251L37.2239 9.775C37.2613 9.71433 37.3056 9.66767 37.3569 9.635C37.4083 9.60233 37.4736 9.586 37.5529 9.586C37.6369 9.586 37.7256 9.61867 37.8189 9.684C37.9123 9.74933 38.0243 9.82167 38.1549 9.901C38.2903 9.98033 38.4536 10.0527 38.6449 10.118C38.8363 10.1833 39.0743 10.216 39.3589 10.216C39.6016 10.216 39.8139 10.1857 39.9959 10.125C40.1779 10.0597 40.3296 9.97333 40.4509 9.866C40.5723 9.75867 40.6609 9.635 40.7169 9.495C40.7776 9.355 40.8079 9.20567 40.8079 9.047C40.8079 8.851 40.7543 8.69 40.6469 8.564C40.5443 8.43333 40.4066 8.32367 40.2339 8.235C40.0613 8.14167 39.8629 8.06233 39.6389 7.997C39.4196 7.927 39.1933 7.85467 38.9599 7.78C38.7313 7.70533 38.5049 7.62133 38.2809 7.528C38.0616 7.43 37.8656 7.30867 37.6929 7.164C37.5203 7.01933 37.3803 6.842 37.2729 6.632C37.1703 6.41733 37.1189 6.15833 37.1189 5.855C37.1189 5.58433 37.1749 5.32533 37.2869 5.078C37.3989 4.826 37.5623 4.60667 37.7769 4.42C37.9916 4.22867 38.2553 4.077 38.5679 3.965C38.8806 3.853 39.2376 3.797 39.6389 3.797C40.1056 3.797 40.5233 3.87167 40.8919 4.021C41.2653 4.16567 41.5873 4.36633 41.8579 4.623L41.5779 5.078ZM45.6816 11.112C45.1216 11.112 44.6899 10.9557 44.3866 10.643C44.0879 10.3303 43.9386 9.88 43.9386 9.292V4.952H43.0846C43.0099 4.952 42.9469 4.931 42.8956 4.889C42.8442 4.84233 42.8186 4.77233 42.8186 4.679V4.182L43.9806 4.035L44.2676 1.844C44.2816 1.774 44.3119 1.718 44.3586 1.676C44.4099 1.62933 44.4752 1.606 44.5546 1.606H45.1846V4.049H47.2356V4.952H45.1846V9.208C45.1846 9.50667 45.2569 9.72833 45.4016 9.873C45.5462 10.0177 45.7329 10.09 45.9616 10.09C46.0922 10.09 46.2042 10.0737 46.2976 10.041C46.3956 10.0037 46.4796 9.964 46.5496 9.922C46.6196 9.88 46.6779 9.84267 46.7246 9.81C46.7759 9.77267 46.8202 9.754 46.8576 9.754C46.9229 9.754 46.9812 9.79367 47.0326 9.873L47.3966 10.468C47.1819 10.6687 46.9229 10.8273 46.6196 10.944C46.3162 11.056 46.0036 11.112 45.6816 11.112Z" fill="#424551"/>
</svg>
