<svg width="99" height="13" viewBox="0 0 99 13" fill="none" xmlns="http://www.w3.org/2000/svg">
<path d="M3.242 6.17C3.62933 6.17 3.97 6.11867 4.264 6.016C4.56267 5.91333 4.81233 5.771 5.013 5.589C5.21833 5.40233 5.37233 5.18067 5.475 4.924C5.57767 4.66733 5.629 4.385 5.629 4.077C5.629 3.43767 5.43067 2.93833 5.034 2.579C4.642 2.21967 4.04467 2.04 3.242 2.04H1.632V6.17H3.242ZM3.242 0.968999C3.87667 0.968999 4.42733 1.04367 4.894 1.193C5.36533 1.33767 5.755 1.54533 6.063 1.816C6.371 2.08667 6.59967 2.41333 6.749 2.796C6.903 3.17867 6.98 3.60567 6.98 4.077C6.98 4.54367 6.89833 4.97067 6.735 5.358C6.57167 5.74533 6.33133 6.079 6.014 6.359C5.70133 6.639 5.31167 6.85833 4.845 7.017C4.383 7.171 3.84867 7.248 3.242 7.248H1.632V11H0.281V0.968999H3.242ZM11.0151 3.797C11.5331 3.797 11.9997 3.88333 12.4151 4.056C12.8304 4.22867 13.1851 4.47367 13.4791 4.791C13.7731 5.10833 13.9971 5.49333 14.1511 5.946C14.3097 6.394 14.3891 6.89567 14.3891 7.451C14.3891 8.011 14.3097 8.515 14.1511 8.963C13.9971 9.411 13.7731 9.79367 13.4791 10.111C13.1851 10.4283 12.8304 10.6733 12.4151 10.846C11.9997 11.014 11.5331 11.098 11.0151 11.098C10.4924 11.098 10.0211 11.014 9.60106 10.846C9.18573 10.6733 8.83106 10.4283 8.53706 10.111C8.24306 9.79367 8.01673 9.411 7.85806 8.963C7.70406 8.515 7.62706 8.011 7.62706 7.451C7.62706 6.89567 7.70406 6.394 7.85806 5.946C8.01673 5.49333 8.24306 5.10833 8.53706 4.791C8.83106 4.47367 9.18573 4.22867 9.60106 4.056C10.0211 3.88333 10.4924 3.797 11.0151 3.797ZM11.0151 10.125C11.7151 10.125 12.2377 9.89167 12.5831 9.425C12.9284 8.95367 13.1011 8.298 13.1011 7.458C13.1011 6.61333 12.9284 5.95533 12.5831 5.484C12.2377 5.01267 11.7151 4.777 11.0151 4.777C10.6604 4.777 10.3501 4.83767 10.0841 4.959C9.82273 5.08033 9.6034 5.25533 9.42606 5.484C9.2534 5.71267 9.12273 5.995 9.03406 6.331C8.95006 6.66233 8.90806 7.038 8.90806 7.458C8.90806 8.298 9.08073 8.95367 9.42606 9.425C9.77606 9.89167 10.3057 10.125 11.0151 10.125ZM20.0994 5.078C20.0434 5.18067 19.9571 5.232 19.8404 5.232C19.7704 5.232 19.6911 5.20633 19.6024 5.155C19.5138 5.10367 19.4041 5.04767 19.2734 4.987C19.1474 4.92167 18.9958 4.86333 18.8184 4.812C18.6411 4.756 18.4311 4.728 18.1884 4.728C17.9784 4.728 17.7894 4.756 17.6214 4.812C17.4534 4.86333 17.3088 4.93567 17.1874 5.029C17.0708 5.12233 16.9798 5.232 16.9144 5.358C16.8538 5.47933 16.8234 5.61233 16.8234 5.757C16.8234 5.939 16.8748 6.09067 16.9774 6.212C17.0848 6.33333 17.2248 6.43833 17.3974 6.527C17.5701 6.61567 17.7661 6.695 17.9854 6.765C18.2048 6.83033 18.4288 6.90267 18.6574 6.982C18.8908 7.05667 19.1171 7.14067 19.3364 7.234C19.5558 7.32733 19.7518 7.444 19.9244 7.584C20.0971 7.724 20.2348 7.89667 20.3374 8.102C20.4448 8.30267 20.4984 8.54533 20.4984 8.83C20.4984 9.15667 20.4401 9.46 20.3234 9.74C20.2068 10.0153 20.0341 10.2557 19.8054 10.461C19.5768 10.6617 19.2968 10.8203 18.9654 10.937C18.6341 11.0537 18.2514 11.112 17.8174 11.112C17.3228 11.112 16.8748 11.0327 16.4734 10.874C16.0721 10.7107 15.7314 10.503 15.4514 10.251L15.7454 9.775C15.7828 9.71433 15.8271 9.66767 15.8784 9.635C15.9298 9.60233 15.9951 9.586 16.0744 9.586C16.1584 9.586 16.2471 9.61867 16.3404 9.684C16.4338 9.74933 16.5458 9.82167 16.6764 9.901C16.8118 9.98033 16.9751 10.0527 17.1664 10.118C17.3578 10.1833 17.5958 10.216 17.8804 10.216C18.1231 10.216 18.3354 10.1857 18.5174 10.125C18.6994 10.0597 18.8511 9.97333 18.9724 9.866C19.0938 9.75867 19.1824 9.635 19.2384 9.495C19.2991 9.355 19.3294 9.20567 19.3294 9.047C19.3294 8.851 19.2758 8.69 19.1684 8.564C19.0658 8.43333 18.9281 8.32367 18.7554 8.235C18.5828 8.14167 18.3844 8.06233 18.1604 7.997C17.9411 7.927 17.7148 7.85467 17.4814 7.78C17.2528 7.70533 17.0264 7.62133 16.8024 7.528C16.5831 7.43 16.3871 7.30867 16.2144 7.164C16.0418 7.01933 15.9018 6.842 15.7944 6.632C15.6918 6.41733 15.6404 6.15833 15.6404 5.855C15.6404 5.58433 15.6964 5.32533 15.8084 5.078C15.9204 4.826 16.0838 4.60667 16.2984 4.42C16.5131 4.22867 16.7768 4.077 17.0894 3.965C17.4021 3.853 17.7591 3.797 18.1604 3.797C18.6271 3.797 19.0448 3.87167 19.4134 4.021C19.7868 4.16567 20.1088 4.36633 20.3794 4.623L20.0994 5.078ZM23.3421 3.909V11H22.0961V3.909H23.3421ZM23.6081 1.683C23.6081 1.80433 23.5824 1.91867 23.5311 2.026C23.4844 2.12867 23.4191 2.222 23.3351 2.306C23.2557 2.38533 23.1601 2.44833 23.0481 2.495C22.9407 2.54167 22.8264 2.565 22.7051 2.565C22.5837 2.565 22.4694 2.54167 22.3621 2.495C22.2594 2.44833 22.1684 2.38533 22.0891 2.306C22.0097 2.222 21.9467 2.12867 21.9001 2.026C21.8534 1.91867 21.8301 1.80433 21.8301 1.683C21.8301 1.56167 21.8534 1.44733 21.9001 1.34C21.9467 1.228 22.0097 1.13233 22.0891 1.053C22.1684 0.969 22.2594 0.903666 22.3621 0.856999C22.4694 0.810333 22.5837 0.786999 22.7051 0.786999C22.8264 0.786999 22.9407 0.810333 23.0481 0.856999C23.1601 0.903666 23.2557 0.969 23.3351 1.053C23.4191 1.13233 23.4844 1.228 23.5311 1.34C23.5824 1.44733 23.6081 1.56167 23.6081 1.683ZM31.9693 11H30.7233V4.952H27.0693V9.208C27.0693 9.50667 27.1417 9.72833 27.2863 9.873C27.431 10.0177 27.6177 10.09 27.8463 10.09C27.977 10.09 28.089 10.0737 28.1823 10.041C28.2803 10.0037 28.3643 9.964 28.4343 9.922C28.5043 9.88 28.5627 9.84267 28.6093 9.81C28.6607 9.77267 28.705 9.754 28.7423 9.754C28.8077 9.754 28.866 9.79367 28.9173 9.873L29.2813 10.468C29.0667 10.6687 28.8077 10.8273 28.5043 10.944C28.201 11.056 27.8883 11.112 27.5663 11.112C27.0063 11.112 26.5747 10.9557 26.2713 10.643C25.9727 10.3303 25.8233 9.88 25.8233 9.292V4.952H24.9693C24.8947 4.952 24.8317 4.931 24.7803 4.889C24.729 4.84233 24.7033 4.77233 24.7033 4.679V4.182L25.8653 4.028L26.1523 1.844C26.1663 1.774 26.1967 1.718 26.2433 1.676C26.2947 1.62933 26.36 1.606 26.4393 1.606H27.0693V4.049H31.9693V11ZM32.2773 1.634C32.2773 1.75533 32.2517 1.86967 32.2003 1.977C32.1537 2.07967 32.0883 2.17067 32.0043 2.25C31.925 2.32933 31.8317 2.39233 31.7243 2.439C31.617 2.48567 31.5027 2.509 31.3813 2.509C31.26 2.509 31.1457 2.48567 31.0383 2.439C30.9357 2.39233 30.8447 2.32933 30.7653 2.25C30.686 2.17067 30.623 2.07967 30.5763 1.977C30.5297 1.86967 30.5063 1.75533 30.5063 1.634C30.5063 1.51267 30.5297 1.39833 30.5763 1.291C30.623 1.179 30.686 1.08333 30.7653 1.004C30.8447 0.919999 30.9357 0.854666 31.0383 0.807999C31.1457 0.761333 31.26 0.737999 31.3813 0.737999C31.5027 0.737999 31.617 0.761333 31.7243 0.807999C31.8317 0.854666 31.925 0.919999 32.0043 1.004C32.0883 1.08333 32.1537 1.179 32.2003 1.291C32.2517 1.39833 32.2773 1.51267 32.2773 1.634ZM37.0053 3.797C37.5233 3.797 37.99 3.88333 38.4053 4.056C38.8206 4.22867 39.1753 4.47367 39.4693 4.791C39.7633 5.10833 39.9873 5.49333 40.1413 5.946C40.3 6.394 40.3793 6.89567 40.3793 7.451C40.3793 8.011 40.3 8.515 40.1413 8.963C39.9873 9.411 39.7633 9.79367 39.4693 10.111C39.1753 10.4283 38.8206 10.6733 38.4053 10.846C37.99 11.014 37.5233 11.098 37.0053 11.098C36.4826 11.098 36.0113 11.014 35.5913 10.846C35.176 10.6733 34.8213 10.4283 34.5273 10.111C34.2333 9.79367 34.007 9.411 33.8483 8.963C33.6943 8.515 33.6173 8.011 33.6173 7.451C33.6173 6.89567 33.6943 6.394 33.8483 5.946C34.007 5.49333 34.2333 5.10833 34.5273 4.791C34.8213 4.47367 35.176 4.22867 35.5913 4.056C36.0113 3.88333 36.4826 3.797 37.0053 3.797ZM37.0053 10.125C37.7053 10.125 38.228 9.89167 38.5733 9.425C38.9186 8.95367 39.0913 8.298 39.0913 7.458C39.0913 6.61333 38.9186 5.95533 38.5733 5.484C38.228 5.01267 37.7053 4.777 37.0053 4.777C36.6506 4.777 36.3403 4.83767 36.0743 4.959C35.813 5.08033 35.5936 5.25533 35.4163 5.484C35.2436 5.71267 35.113 5.995 35.0243 6.331C34.9403 6.66233 34.8983 7.038 34.8983 7.458C34.8983 8.298 35.071 8.95367 35.4163 9.425C35.7663 9.89167 36.296 10.125 37.0053 10.125ZM43.1357 4.938C43.2897 4.76533 43.453 4.609 43.6257 4.469C43.7983 4.329 43.9803 4.21 44.1717 4.112C44.3677 4.00933 44.573 3.93233 44.7877 3.881C45.007 3.825 45.2427 3.797 45.4947 3.797C45.882 3.797 46.2227 3.86233 46.5167 3.993C46.8153 4.119 47.0627 4.301 47.2587 4.539C47.4593 4.77233 47.611 5.05467 47.7137 5.386C47.8163 5.71733 47.8677 6.08367 47.8677 6.485V11H46.6147V6.485C46.6147 5.94833 46.491 5.533 46.2437 5.239C46.001 4.94033 45.63 4.791 45.1307 4.791C44.762 4.791 44.4167 4.87967 44.0947 5.057C43.7773 5.23433 43.4833 5.47467 43.2127 5.778V11H41.9597V3.909H42.7087C42.886 3.909 42.9957 3.99533 43.0377 4.168L43.1357 4.938ZM49.6893 12.694C49.652 12.6613 49.6263 12.631 49.6123 12.603C49.5983 12.575 49.5913 12.54 49.5913 12.498C49.5913 12.4653 49.6006 12.4327 49.6193 12.4C49.6426 12.3673 49.6683 12.337 49.6963 12.309C49.743 12.2577 49.8013 12.19 49.8713 12.106C49.946 12.022 50.0206 11.9217 50.0953 11.805C50.17 11.693 50.2376 11.567 50.2983 11.427C50.3636 11.2917 50.4103 11.147 50.4383 10.993C50.4243 10.9977 50.408 11 50.3893 11C50.3753 11 50.3613 11 50.3473 11C50.1046 11 49.9063 10.9207 49.7523 10.762C49.603 10.5987 49.5283 10.391 49.5283 10.139C49.5283 9.91967 49.603 9.733 49.7523 9.579C49.9063 9.425 50.1093 9.348 50.3613 9.348C50.5013 9.348 50.625 9.37367 50.7323 9.425C50.8396 9.47633 50.9283 9.54867 50.9983 9.642C51.073 9.73067 51.129 9.83567 51.1663 9.957C51.2036 10.0737 51.2223 10.202 51.2223 10.342C51.2223 10.552 51.192 10.7713 51.1313 11C51.0753 11.224 50.989 11.4457 50.8723 11.665C50.7603 11.889 50.6226 12.106 50.4593 12.316C50.296 12.526 50.1093 12.7197 49.8993 12.897L49.6893 12.694ZM63.8562 8.928C63.9309 8.928 63.9962 8.95833 64.0522 9.019L64.5912 9.6C64.1805 10.076 63.6812 10.447 63.0932 10.713C62.5099 10.979 61.8029 11.112 60.9722 11.112C60.2535 11.112 59.6002 10.9883 59.0122 10.741C58.4242 10.489 57.9225 10.139 57.5072 9.691C57.0919 9.23833 56.7699 8.697 56.5412 8.067C56.3125 7.437 56.1982 6.744 56.1982 5.988C56.1982 5.232 56.3172 4.539 56.5552 3.909C56.7932 3.279 57.1269 2.73767 57.5562 2.285C57.9902 1.83233 58.5082 1.48233 59.1102 1.235C59.7122 0.982999 60.3772 0.856999 61.1052 0.856999C61.8192 0.856999 62.4492 0.971333 62.9952 1.2C63.5412 1.42867 64.0219 1.739 64.4372 2.131L63.9892 2.754C63.9612 2.80067 63.9239 2.84033 63.8772 2.873C63.8352 2.901 63.7769 2.915 63.7022 2.915C63.6182 2.915 63.5155 2.87067 63.3942 2.782C63.2729 2.68867 63.1142 2.586 62.9182 2.474C62.7222 2.362 62.4772 2.26167 62.1832 2.173C61.8892 2.07967 61.5275 2.033 61.0982 2.033C60.5802 2.033 60.1065 2.124 59.6772 2.306C59.2479 2.48333 58.8769 2.74233 58.5642 3.083C58.2562 3.42367 58.0159 3.839 57.8432 4.329C57.6705 4.819 57.5842 5.372 57.5842 5.988C57.5842 6.61333 57.6729 7.171 57.8502 7.661C58.0322 8.151 58.2772 8.56633 58.5852 8.907C58.8979 9.243 59.2642 9.49967 59.6842 9.677C60.1089 9.85433 60.5662 9.943 61.0562 9.943C61.3549 9.943 61.6232 9.92667 61.8612 9.894C62.1039 9.85667 62.3255 9.80067 62.5262 9.726C62.7315 9.65133 62.9205 9.558 63.0932 9.446C63.2705 9.32933 63.4455 9.19167 63.6182 9.033C63.6975 8.963 63.7769 8.928 63.8562 8.928ZM68.724 3.797C69.242 3.797 69.7087 3.88333 70.124 4.056C70.5394 4.22867 70.894 4.47367 71.188 4.791C71.482 5.10833 71.706 5.49333 71.86 5.946C72.0187 6.394 72.098 6.89567 72.098 7.451C72.098 8.011 72.0187 8.515 71.86 8.963C71.706 9.411 71.482 9.79367 71.188 10.111C70.894 10.4283 70.5394 10.6733 70.124 10.846C69.7087 11.014 69.242 11.098 68.724 11.098C68.2014 11.098 67.73 11.014 67.31 10.846C66.8947 10.6733 66.54 10.4283 66.246 10.111C65.952 9.79367 65.7257 9.411 65.567 8.963C65.413 8.515 65.336 8.011 65.336 7.451C65.336 6.89567 65.413 6.394 65.567 5.946C65.7257 5.49333 65.952 5.10833 66.246 4.791C66.54 4.47367 66.8947 4.22867 67.31 4.056C67.73 3.88333 68.2014 3.797 68.724 3.797ZM68.724 10.125C69.424 10.125 69.9467 9.89167 70.292 9.425C70.6374 8.95367 70.81 8.298 70.81 7.458C70.81 6.61333 70.6374 5.95533 70.292 5.484C69.9467 5.01267 69.424 4.777 68.724 4.777C68.3694 4.777 68.059 4.83767 67.793 4.959C67.5317 5.08033 67.3124 5.25533 67.135 5.484C66.9624 5.71267 66.8317 5.995 66.743 6.331C66.659 6.66233 66.617 7.038 66.617 7.458C66.617 8.298 66.7897 8.95367 67.135 9.425C67.485 9.89167 68.0147 10.125 68.724 10.125ZM79.5094 3.909V11H78.7674C78.5901 11 78.4781 10.9137 78.4314 10.741L78.3334 9.978C78.0254 10.3187 77.6801 10.594 77.2974 10.804C76.9147 11.0093 76.4761 11.112 75.9814 11.112C75.5941 11.112 75.2511 11.049 74.9524 10.923C74.6584 10.7923 74.4111 10.6103 74.2104 10.377C74.0097 10.1437 73.8581 9.86133 73.7554 9.53C73.6574 9.19867 73.6084 8.83233 73.6084 8.431V3.909H74.8544V8.431C74.8544 8.96767 74.9757 9.383 75.2184 9.677C75.4657 9.971 75.8414 10.118 76.3454 10.118C76.7141 10.118 77.0571 10.0317 77.3744 9.859C77.6964 9.68167 77.9927 9.439 78.2634 9.131V3.909H79.5094ZM82.668 5.33C82.892 4.84467 83.1674 4.46667 83.494 4.196C83.8207 3.92067 84.2197 3.783 84.691 3.783C84.8404 3.783 84.9827 3.79933 85.118 3.832C85.258 3.86467 85.3817 3.916 85.489 3.986L85.398 4.917C85.37 5.03367 85.3 5.092 85.188 5.092C85.1227 5.092 85.027 5.078 84.901 5.05C84.775 5.022 84.6327 5.008 84.474 5.008C84.25 5.008 84.0494 5.04067 83.872 5.106C83.6994 5.17133 83.543 5.26933 83.403 5.4C83.2677 5.526 83.144 5.68467 83.032 5.876C82.9247 6.06267 82.8267 6.27733 82.738 6.52V11H81.485V3.909H82.199C82.3344 3.909 82.4277 3.93467 82.479 3.986C82.5304 4.03733 82.5654 4.126 82.584 4.252L82.668 5.33ZM90.6736 5.078C90.6176 5.18067 90.5313 5.232 90.4146 5.232C90.3446 5.232 90.2653 5.20633 90.1766 5.155C90.088 5.10367 89.9783 5.04767 89.8476 4.987C89.7216 4.92167 89.57 4.86333 89.3926 4.812C89.2153 4.756 89.0053 4.728 88.7626 4.728C88.5526 4.728 88.3636 4.756 88.1956 4.812C88.0276 4.86333 87.883 4.93567 87.7616 5.029C87.645 5.12233 87.554 5.232 87.4886 5.358C87.428 5.47933 87.3976 5.61233 87.3976 5.757C87.3976 5.939 87.449 6.09067 87.5516 6.212C87.659 6.33333 87.799 6.43833 87.9716 6.527C88.1443 6.61567 88.3403 6.695 88.5596 6.765C88.779 6.83033 89.003 6.90267 89.2316 6.982C89.465 7.05667 89.6913 7.14067 89.9106 7.234C90.13 7.32733 90.326 7.444 90.4986 7.584C90.6713 7.724 90.809 7.89667 90.9116 8.102C91.019 8.30267 91.0726 8.54533 91.0726 8.83C91.0726 9.15667 91.0143 9.46 90.8976 9.74C90.781 10.0153 90.6083 10.2557 90.3796 10.461C90.151 10.6617 89.871 10.8203 89.5396 10.937C89.2083 11.0537 88.8256 11.112 88.3916 11.112C87.897 11.112 87.449 11.0327 87.0476 10.874C86.6463 10.7107 86.3056 10.503 86.0256 10.251L86.3196 9.775C86.357 9.71433 86.4013 9.66767 86.4526 9.635C86.504 9.60233 86.5693 9.586 86.6486 9.586C86.7326 9.586 86.8213 9.61867 86.9146 9.684C87.008 9.74933 87.12 9.82167 87.2506 9.901C87.386 9.98033 87.5493 10.0527 87.7406 10.118C87.932 10.1833 88.17 10.216 88.4546 10.216C88.6973 10.216 88.9096 10.1857 89.0916 10.125C89.2736 10.0597 89.4253 9.97333 89.5466 9.866C89.668 9.75867 89.7566 9.635 89.8126 9.495C89.8733 9.355 89.9036 9.20567 89.9036 9.047C89.9036 8.851 89.85 8.69 89.7426 8.564C89.64 8.43333 89.5023 8.32367 89.3296 8.235C89.157 8.14167 88.9586 8.06233 88.7346 7.997C88.5153 7.927 88.289 7.85467 88.0556 7.78C87.827 7.70533 87.6006 7.62133 87.3766 7.528C87.1573 7.43 86.9613 7.30867 86.7886 7.164C86.616 7.01933 86.476 6.842 86.3686 6.632C86.266 6.41733 86.2146 6.15833 86.2146 5.855C86.2146 5.58433 86.2706 5.32533 86.3826 5.078C86.4946 4.826 86.658 4.60667 86.8726 4.42C87.0873 4.22867 87.351 4.077 87.6636 3.965C87.9763 3.853 88.3333 3.797 88.7346 3.797C89.2013 3.797 89.619 3.87167 89.9876 4.021C90.361 4.16567 90.683 4.36633 90.9536 4.623L90.6736 5.078ZM97.3463 6.681C97.3463 6.39167 97.3043 6.128 97.2203 5.89C97.1409 5.64733 97.0219 5.43967 96.8633 5.267C96.7093 5.08967 96.5203 4.95433 96.2963 4.861C96.0723 4.763 95.8179 4.714 95.5333 4.714C94.9359 4.714 94.4623 4.889 94.1123 5.239C93.7669 5.58433 93.5523 6.065 93.4683 6.681H97.3463ZM98.3543 10.006C98.2003 10.1927 98.0159 10.356 97.8013 10.496C97.5866 10.6313 97.3556 10.7433 97.1083 10.832C96.8656 10.9207 96.6136 10.986 96.3523 11.028C96.0909 11.0747 95.8319 11.098 95.5753 11.098C95.0853 11.098 94.6326 11.0163 94.2173 10.853C93.8066 10.685 93.4496 10.4423 93.1463 10.125C92.8476 9.803 92.6143 9.40633 92.4463 8.935C92.2783 8.46367 92.1943 7.92233 92.1943 7.311C92.1943 6.81633 92.2689 6.35433 92.4183 5.925C92.5723 5.49567 92.7916 5.12467 93.0763 4.812C93.3609 4.49467 93.7086 4.24733 94.1193 4.07C94.5299 3.888 94.9919 3.797 95.5053 3.797C95.9299 3.797 96.3219 3.86933 96.6813 4.014C97.0453 4.154 97.3579 4.35933 97.6193 4.63C97.8853 4.896 98.0929 5.22733 98.2423 5.624C98.3916 6.016 98.4663 6.464 98.4663 6.968C98.4663 7.164 98.4453 7.29467 98.4033 7.36C98.3613 7.42533 98.2819 7.458 98.1653 7.458H93.4263C93.4403 7.906 93.5009 8.29567 93.6083 8.627C93.7203 8.95833 93.8743 9.236 94.0703 9.46C94.2663 9.67933 94.4996 9.845 94.7703 9.957C95.0409 10.0643 95.3443 10.118 95.6803 10.118C95.9929 10.118 96.2613 10.083 96.4853 10.013C96.7139 9.93833 96.9099 9.859 97.0733 9.775C97.2366 9.691 97.3719 9.614 97.4793 9.544C97.5913 9.46933 97.6869 9.432 97.7663 9.432C97.8689 9.432 97.9483 9.47167 98.0043 9.551L98.3543 10.006Z" fill="#787A80"/>
</svg>
