<svg width="26" height="27" viewBox="0 0 26 27" fill="none" xmlns="http://www.w3.org/2000/svg">
<g filter="url(#filter0_d_2607_1637)">
<path fill-rule="evenodd" clip-rule="evenodd" d="M13.0002 2.70866C11.3894 2.70866 10.0835 4.0145 10.0835 5.62533C10.0835 7.23616 11.3894 8.54199 13.0002 8.54199C14.611 8.54199 15.9169 7.23616 15.9169 5.62533C15.9169 4.0145 14.611 2.70866 13.0002 2.70866ZM8.41686 5.62533C8.41686 3.09402 10.4689 1.04199 13.0002 1.04199C15.5315 1.04199 17.5835 3.09402 17.5835 5.62533C17.5835 8.15663 15.5315 10.2087 13.0002 10.2087C10.4689 10.2087 8.41686 8.15663 8.41686 5.62533Z" fill="#424551"/>
<path fill-rule="evenodd" clip-rule="evenodd" d="M8.08691 12.7087C7.50914 12.7087 7.05755 12.99 6.87424 13.3942C6.62053 13.9536 6.39078 14.6196 6.33656 15.2513C6.31233 15.5337 6.43006 15.7418 6.5923 15.8426C7.44993 16.3753 9.43719 17.292 13.0002 17.292C16.5632 17.292 18.5505 16.3753 19.4081 15.8426C19.5703 15.7418 19.6881 15.5337 19.6638 15.2513C19.6096 14.6196 19.3799 13.9536 19.1261 13.3942C18.9428 12.99 18.4912 12.7087 17.9135 12.7087H8.08691ZM5.35639 12.7058C5.86301 11.5887 6.99428 11.042 8.08691 11.042H17.9135C19.0061 11.042 20.1374 11.5887 20.644 12.7058C20.935 13.3474 21.2472 14.2099 21.3244 15.1088C21.3946 15.9273 21.0544 16.7819 20.2876 17.2583C19.1596 17.959 16.8665 18.9587 13.0002 18.9587C9.13386 18.9587 6.84078 17.959 5.71283 17.2583C4.94595 16.7819 4.60575 15.9273 4.676 15.1088C4.75315 14.2099 5.0654 13.3474 5.35639 12.7058Z" fill="#424551"/>
</g>
<defs>
<filter id="filter0_d_2607_1637" x="-1" y="0" width="28" height="28" filterUnits="userSpaceOnUse" color-interpolation-filters="sRGB">
<feFlood flood-opacity="0" result="BackgroundImageFix"/>
<feColorMatrix in="SourceAlpha" type="matrix" values="0 0 0 0 0 0 0 0 0 0 0 0 0 0 0 0 0 0 127 0" result="hardAlpha"/>
<feOffset dy="4"/>
<feGaussianBlur stdDeviation="2"/>
<feComposite in2="hardAlpha" operator="out"/>
<feColorMatrix type="matrix" values="0 0 0 0 0 0 0 0 0 0 0 0 0 0 0 0 0 0 0.25 0"/>
<feBlend mode="normal" in2="BackgroundImageFix" result="effect1_dropShadow_2607_1637"/>
<feBlend mode="normal" in="SourceGraphic" in2="effect1_dropShadow_2607_1637" result="shape"/>
</filter>
</defs>
</svg>
