<svg width="36" height="12" viewBox="0 0 36 12" fill="none" xmlns="http://www.w3.org/2000/svg">
<path d="M9.436 0.968999L5.348 11H4.13L0.042 0.968999H1.127C1.24833 0.968999 1.34633 0.999333 1.421 1.06C1.49567 1.12067 1.55167 1.19767 1.589 1.291L4.417 8.368C4.47767 8.52667 4.536 8.69933 4.592 8.886C4.65267 9.07267 4.70633 9.26867 4.753 9.474C4.79967 9.26867 4.84867 9.07267 4.9 8.886C4.95133 8.69933 5.00733 8.52667 5.068 8.368L7.889 1.291C7.917 1.21167 7.97067 1.13933 8.05 1.074C8.134 1.004 8.23433 0.968999 8.351 0.968999H9.436ZM11.7776 3.909V11H10.5316V3.909H11.7776ZM12.0436 1.683C12.0436 1.80433 12.0179 1.91867 11.9666 2.026C11.9199 2.12867 11.8546 2.222 11.7706 2.306C11.6913 2.38533 11.5956 2.44833 11.4836 2.495C11.3763 2.54167 11.2619 2.565 11.1406 2.565C11.0193 2.565 10.9049 2.54167 10.7976 2.495C10.6949 2.44833 10.6039 2.38533 10.5246 2.306C10.4453 2.222 10.3823 2.12867 10.3356 2.026C10.2889 1.91867 10.2656 1.80433 10.2656 1.683C10.2656 1.56167 10.2889 1.44733 10.3356 1.34C10.3823 1.228 10.4453 1.13233 10.5246 1.053C10.6039 0.969 10.6949 0.903666 10.7976 0.856999C10.9049 0.810333 11.0193 0.786999 11.1406 0.786999C11.2619 0.786999 11.3763 0.810333 11.4836 0.856999C11.5956 0.903666 11.6913 0.969 11.7706 1.053C11.8546 1.13233 11.9199 1.228 11.9666 1.34C12.0179 1.44733 12.0436 1.56167 12.0436 1.683ZM18.4449 5.596C18.2116 5.28333 17.9596 5.06633 17.6889 4.945C17.4182 4.819 17.1149 4.756 16.7789 4.756C16.1209 4.756 15.6146 4.99167 15.2599 5.463C14.9052 5.93433 14.7279 6.60633 14.7279 7.479C14.7279 7.941 14.7676 8.33767 14.8469 8.669C14.9262 8.99567 15.0429 9.26633 15.1969 9.481C15.3509 9.691 15.5399 9.845 15.7639 9.943C15.9879 10.041 16.2422 10.09 16.5269 10.09C16.9376 10.09 17.2946 9.99667 17.5979 9.81C17.9059 9.62333 18.1882 9.35967 18.4449 9.019V5.596ZM19.6909 0.689V11H18.9489C18.7716 11 18.6596 10.9137 18.6129 10.741L18.5009 9.88C18.1976 10.244 17.8522 10.538 17.4649 10.762C17.0776 10.986 16.6296 11.098 16.1209 11.098C15.7149 11.098 15.3462 11.021 15.0149 10.867C14.6836 10.7083 14.4012 10.4773 14.1679 10.174C13.9346 9.87067 13.7549 9.49267 13.6289 9.04C13.5029 8.58733 13.4399 8.067 13.4399 7.479C13.4399 6.95633 13.5099 6.471 13.6499 6.023C13.7899 5.57033 13.9906 5.17833 14.2519 4.847C14.5132 4.51567 14.8329 4.25667 15.2109 4.07C15.5936 3.87867 16.0229 3.783 16.4989 3.783C16.9329 3.783 17.3039 3.85767 17.6119 4.007C17.9246 4.15167 18.2022 4.35467 18.4449 4.616V0.689H19.6909ZM26.4049 6.681C26.4049 6.39167 26.3629 6.128 26.2789 5.89C26.1995 5.64733 26.0805 5.43967 25.9219 5.267C25.7679 5.08967 25.5789 4.95433 25.3549 4.861C25.1309 4.763 24.8765 4.714 24.5919 4.714C23.9945 4.714 23.5209 4.889 23.1709 5.239C22.8255 5.58433 22.6109 6.065 22.5269 6.681H26.4049ZM27.4129 10.006C27.2589 10.1927 27.0745 10.356 26.8599 10.496C26.6452 10.6313 26.4142 10.7433 26.1669 10.832C25.9242 10.9207 25.6722 10.986 25.4109 11.028C25.1495 11.0747 24.8905 11.098 24.6339 11.098C24.1439 11.098 23.6912 11.0163 23.2759 10.853C22.8652 10.685 22.5082 10.4423 22.2049 10.125C21.9062 9.803 21.6729 9.40633 21.5049 8.935C21.3369 8.46367 21.2529 7.92233 21.2529 7.311C21.2529 6.81633 21.3275 6.35433 21.4769 5.925C21.6309 5.49567 21.8502 5.12467 22.1349 4.812C22.4195 4.49467 22.7672 4.24733 23.1779 4.07C23.5885 3.888 24.0505 3.797 24.5639 3.797C24.9885 3.797 25.3805 3.86933 25.7399 4.014C26.1039 4.154 26.4165 4.35933 26.6779 4.63C26.9439 4.896 27.1515 5.22733 27.3009 5.624C27.4502 6.016 27.5249 6.464 27.5249 6.968C27.5249 7.164 27.5039 7.29467 27.4619 7.36C27.4199 7.42533 27.3405 7.458 27.2239 7.458H22.4849C22.4989 7.906 22.5595 8.29567 22.6669 8.627C22.7789 8.95833 22.9329 9.236 23.1289 9.46C23.3249 9.67933 23.5582 9.845 23.8289 9.957C24.0995 10.0643 24.4029 10.118 24.7389 10.118C25.0515 10.118 25.3199 10.083 25.5439 10.013C25.7725 9.93833 25.9685 9.859 26.1319 9.775C26.2952 9.691 26.4305 9.614 26.5379 9.544C26.6499 9.46933 26.7455 9.432 26.8249 9.432C26.9275 9.432 27.0069 9.47167 27.0629 9.551L27.4129 10.006ZM32.0444 3.797C32.5624 3.797 33.029 3.88333 33.4444 4.056C33.8597 4.22867 34.2144 4.47367 34.5084 4.791C34.8024 5.10833 35.0264 5.49333 35.1804 5.946C35.339 6.394 35.4184 6.89567 35.4184 7.451C35.4184 8.011 35.339 8.515 35.1804 8.963C35.0264 9.411 34.8024 9.79367 34.5084 10.111C34.2144 10.4283 33.8597 10.6733 33.4444 10.846C33.029 11.014 32.5624 11.098 32.0444 11.098C31.5217 11.098 31.0504 11.014 30.6304 10.846C30.215 10.6733 29.8604 10.4283 29.5664 10.111C29.2724 9.79367 29.046 9.411 28.8874 8.963C28.7334 8.515 28.6564 8.011 28.6564 7.451C28.6564 6.89567 28.7334 6.394 28.8874 5.946C29.046 5.49333 29.2724 5.10833 29.5664 4.791C29.8604 4.47367 30.215 4.22867 30.6304 4.056C31.0504 3.88333 31.5217 3.797 32.0444 3.797ZM32.0444 10.125C32.7444 10.125 33.267 9.89167 33.6124 9.425C33.9577 8.95367 34.1304 8.298 34.1304 7.458C34.1304 6.61333 33.9577 5.95533 33.6124 5.484C33.267 5.01267 32.7444 4.777 32.0444 4.777C31.6897 4.777 31.3794 4.83767 31.1134 4.959C30.852 5.08033 30.6327 5.25533 30.4554 5.484C30.2827 5.71267 30.152 5.995 30.0634 6.331C29.9794 6.66233 29.9374 7.038 29.9374 7.458C29.9374 8.298 30.11 8.95367 30.4554 9.425C30.8054 9.89167 31.335 10.125 32.0444 10.125Z" fill="#424551"/>
</svg>
